<mxfile host="Electron" modified="2023-12-18T22:09:13.719Z" agent="Mozilla/5.0 (Windows NT 10.0; Win64; x64) AppleWebKit/537.36 (KHTML, like Gecko) draw.io/22.1.2 Chrome/114.0.5735.289 Electron/25.9.4 Safari/537.36" version="22.1.2" etag="C6Re6SNGLHeD748RyHDv" type="device">
  <diagram id="C5RBs43oDa-KdzZeNtuy" name="Page-1">
    <mxGraphModel dx="1098" dy="828" grid="1" gridSize="10" guides="1" tooltips="1" connect="1" arrows="1" fold="1" page="1" pageScale="1" pageWidth="827" pageHeight="1169" math="0" shadow="0">
      <root>
        <mxCell id="WIyWlLk6GJQsqaUBKTNV-0" />
        <mxCell id="WIyWlLk6GJQsqaUBKTNV-1" parent="WIyWlLk6GJQsqaUBKTNV-0" />
        <mxCell id="MKtgtbMU44VyUPtD6Epg-4" style="edgeStyle=orthogonalEdgeStyle;rounded=0;orthogonalLoop=1;jettySize=auto;html=1;" parent="WIyWlLk6GJQsqaUBKTNV-1" source="MKtgtbMU44VyUPtD6Epg-0" target="MKtgtbMU44VyUPtD6Epg-3" edge="1">
          <mxGeometry relative="1" as="geometry" />
        </mxCell>
        <mxCell id="MKtgtbMU44VyUPtD6Epg-0" value="User" style="shape=umlActor;verticalLabelPosition=bottom;verticalAlign=top;html=1;outlineConnect=0;" parent="WIyWlLk6GJQsqaUBKTNV-1" vertex="1">
          <mxGeometry x="384" y="90" width="30" height="60" as="geometry" />
        </mxCell>
        <mxCell id="MKtgtbMU44VyUPtD6Epg-9" style="edgeStyle=orthogonalEdgeStyle;rounded=0;orthogonalLoop=1;jettySize=auto;html=1;exitX=0.5;exitY=1;exitDx=0;exitDy=0;entryX=0.5;entryY=0;entryDx=0;entryDy=0;" parent="WIyWlLk6GJQsqaUBKTNV-1" source="MKtgtbMU44VyUPtD6Epg-3" target="MKtgtbMU44VyUPtD6Epg-6" edge="1">
          <mxGeometry relative="1" as="geometry" />
        </mxCell>
        <mxCell id="MKtgtbMU44VyUPtD6Epg-3" value="Open home page" style="rounded=1;whiteSpace=wrap;html=1;" parent="WIyWlLk6GJQsqaUBKTNV-1" vertex="1">
          <mxGeometry x="339" y="230" width="120" height="60" as="geometry" />
        </mxCell>
        <mxCell id="MKtgtbMU44VyUPtD6Epg-18" style="edgeStyle=orthogonalEdgeStyle;rounded=0;orthogonalLoop=1;jettySize=auto;html=1;exitX=0.5;exitY=1;exitDx=0;exitDy=0;entryX=0.5;entryY=0;entryDx=0;entryDy=0;" parent="WIyWlLk6GJQsqaUBKTNV-1" source="MKtgtbMU44VyUPtD6Epg-6" target="MKtgtbMU44VyUPtD6Epg-15" edge="1">
          <mxGeometry relative="1" as="geometry" />
        </mxCell>
        <mxCell id="MKtgtbMU44VyUPtD6Epg-6" value="User adds a new property to their open homes." style="rounded=1;whiteSpace=wrap;html=1;" parent="WIyWlLk6GJQsqaUBKTNV-1" vertex="1">
          <mxGeometry x="339" y="320" width="120" height="60" as="geometry" />
        </mxCell>
        <mxCell id="MKtgtbMU44VyUPtD6Epg-30" value="" style="edgeStyle=orthogonalEdgeStyle;rounded=0;orthogonalLoop=1;jettySize=auto;html=1;" parent="WIyWlLk6GJQsqaUBKTNV-1" source="MKtgtbMU44VyUPtD6Epg-15" target="MKtgtbMU44VyUPtD6Epg-28" edge="1">
          <mxGeometry relative="1" as="geometry" />
        </mxCell>
        <mxCell id="MKtgtbMU44VyUPtD6Epg-15" value="User adds a new open home register to the property" style="rounded=1;whiteSpace=wrap;html=1;" parent="WIyWlLk6GJQsqaUBKTNV-1" vertex="1">
          <mxGeometry x="339" y="410" width="120" height="60" as="geometry" />
        </mxCell>
        <mxCell id="MKtgtbMU44VyUPtD6Epg-25" value="" style="edgeStyle=orthogonalEdgeStyle;rounded=0;orthogonalLoop=1;jettySize=auto;html=1;" parent="WIyWlLk6GJQsqaUBKTNV-1" target="MKtgtbMU44VyUPtD6Epg-24" edge="1">
          <mxGeometry relative="1" as="geometry">
            <mxPoint x="354" y="612" as="sourcePoint" />
          </mxGeometry>
        </mxCell>
        <mxCell id="qhxzKkxH-hAy4P9CV_k9-1" style="edgeStyle=orthogonalEdgeStyle;rounded=0;orthogonalLoop=1;jettySize=auto;html=1;exitX=0.5;exitY=1;exitDx=0;exitDy=0;exitPerimeter=0;entryX=0;entryY=0.5;entryDx=0;entryDy=0;" edge="1" parent="WIyWlLk6GJQsqaUBKTNV-1" source="MKtgtbMU44VyUPtD6Epg-24" target="MKtgtbMU44VyUPtD6Epg-33">
          <mxGeometry relative="1" as="geometry" />
        </mxCell>
        <mxCell id="MKtgtbMU44VyUPtD6Epg-24" value="Server checks if clients are new and adds new clients to database." style="shape=cylinder3;whiteSpace=wrap;html=1;boundedLbl=1;backgroundOutline=1;size=15;" parent="WIyWlLk6GJQsqaUBKTNV-1" vertex="1">
          <mxGeometry x="150" y="560" width="89" height="105" as="geometry" />
        </mxCell>
        <mxCell id="MKtgtbMU44VyUPtD6Epg-31" value="" style="edgeStyle=orthogonalEdgeStyle;rounded=0;orthogonalLoop=1;jettySize=auto;html=1;" parent="WIyWlLk6GJQsqaUBKTNV-1" source="MKtgtbMU44VyUPtD6Epg-28" edge="1">
          <mxGeometry relative="1" as="geometry">
            <mxPoint x="399" y="569.5" as="targetPoint" />
          </mxGeometry>
        </mxCell>
        <mxCell id="MKtgtbMU44VyUPtD6Epg-28" value="Blank form opens." style="rounded=1;whiteSpace=wrap;html=1;" parent="WIyWlLk6GJQsqaUBKTNV-1" vertex="1">
          <mxGeometry x="339" y="490" width="120" height="60" as="geometry" />
        </mxCell>
        <mxCell id="MKtgtbMU44VyUPtD6Epg-36" value="" style="edgeStyle=orthogonalEdgeStyle;rounded=0;orthogonalLoop=1;jettySize=auto;html=1;" parent="WIyWlLk6GJQsqaUBKTNV-1" source="MKtgtbMU44VyUPtD6Epg-33" target="MKtgtbMU44VyUPtD6Epg-35" edge="1">
          <mxGeometry relative="1" as="geometry" />
        </mxCell>
        <mxCell id="MKtgtbMU44VyUPtD6Epg-33" value="Thank you message appears and blank form opens for next client" style="rounded=1;whiteSpace=wrap;html=1;" parent="WIyWlLk6GJQsqaUBKTNV-1" vertex="1">
          <mxGeometry x="339" y="670" width="120" height="60" as="geometry" />
        </mxCell>
        <mxCell id="MKtgtbMU44VyUPtD6Epg-35" value="User clicks end open home register session" style="rounded=1;whiteSpace=wrap;html=1;" parent="WIyWlLk6GJQsqaUBKTNV-1" vertex="1">
          <mxGeometry x="339" y="760" width="120" height="60" as="geometry" />
        </mxCell>
        <mxCell id="qhxzKkxH-hAy4P9CV_k9-0" value="Clients enter their details" style="rounded=1;whiteSpace=wrap;html=1;" vertex="1" parent="WIyWlLk6GJQsqaUBKTNV-1">
          <mxGeometry x="339" y="570" width="120" height="60" as="geometry" />
        </mxCell>
      </root>
    </mxGraphModel>
  </diagram>
</mxfile>
